<svg width="100" height="100" viewBox="0 0 100 100" fill="none" xmlns="http://www.w3.org/2000/svg">
<path d="M65.1713 24.0838C65.1713 30.7021 62.7979 36.4311 58.1156 41.1141C53.4334 45.7963 47.7037 48.1697 41.0854 48.1697H41.0738C34.4637 48.1674 28.7379 45.7939 24.0557 41.1141C19.3729 36.4311 17 30.7021 17 24.0838C17 17.4676 19.3729 11.7379 24.0557 7.05566C28.7355 2.375 34.4615 0.00234375 41.0738 0H41.0854C47.7016 0 53.4311 2.37344 58.1156 7.05566C62.7979 11.7379 65.1713 17.4676 65.1713 24.0838Z" fill="#AEC8F0"/>
<path d="M83.4313 82.8018C83.4313 88.0234 81.7703 92.251 78.4988 95.3643C75.2656 98.4414 70.9891 100 65.7898 100H17.6393C12.4396 100 8.16348 98.4414 4.93223 95.3644C1.65898 92.2484 0 88.0219 0 82.802C0 80.7938 0.0664062 78.807 0.199219 76.8967C0.333984 74.9436 0.607422 72.818 1.01016 70.5758C1.41602 68.315 1.93789 66.1781 2.56289 64.225C3.21133 62.2031 4.08867 60.209 5.17422 58.2984C6.30195 56.3156 7.62637 54.5883 9.11094 53.1662C10.6676 51.6777 12.5701 50.4822 14.7697 49.6109C16.9617 48.7441 19.3916 48.3047 21.9918 48.3047C23.0117 48.3047 23.9996 48.7221 25.9039 49.9627C27.2602 50.846 28.6206 51.7231 29.985 52.5939C31.2943 53.4287 33.0674 54.2115 35.2592 54.9187C37.1857 55.542 39.141 55.8898 41.0729 55.95C41.2857 55.9578 41.4986 55.9617 41.7115 55.9617C43.8568 55.9617 46.0266 55.61 48.1658 54.9187C50.3578 54.2115 52.1332 53.4285 53.4416 52.5939C54.8055 51.7239 56.1653 50.8476 57.5211 49.965C59.427 48.7221 60.4133 48.3049 61.4357 48.3049C64.0334 48.3049 66.4635 48.7443 68.6568 49.6109C70.8564 50.482 72.7592 51.6801 74.3141 53.1662C75.8012 54.5883 77.1256 56.3156 78.2523 58.2984C79.3389 60.2105 80.2178 62.2031 80.8639 64.2227C81.4896 66.1781 82.0129 68.315 82.4188 70.5771C82.8193 72.8219 83.0932 74.9473 83.2275 76.8951C83.3625 78.7994 83.4289 80.7861 83.4313 82.8018Z" fill="#AEC8F0"/>
<path d="M41.0838 48.1697H41.0723V0H41.0838C47.7 0 53.4295 2.37344 58.1141 7.05566C62.7963 11.7379 65.1697 17.4676 65.1697 24.0838C65.1697 30.7021 62.7963 36.4311 58.1141 41.1141C53.4318 45.7963 47.7021 48.1697 41.0838 48.1697Z" fill="#6092DD"/>
<path d="M83.4307 82.8018C83.4307 88.0235 81.7697 92.251 78.4982 95.3643C75.265 98.4415 70.9885 100 65.7893 100H41.0723V55.9502C41.2852 55.9579 41.498 55.9616 41.7109 55.9616C43.8563 55.9616 46.026 55.61 48.1652 54.9186C50.3572 54.2116 52.1326 53.4288 53.441 52.594C54.8049 51.724 56.1647 50.8477 57.5205 49.9651C59.4264 48.7221 60.4127 48.3049 61.4352 48.3049C64.0328 48.3049 66.4629 48.7444 68.6563 49.611C70.8559 50.4821 72.7586 51.6801 74.3135 53.1663C75.8006 54.5883 77.125 56.3157 78.2518 58.2985C79.3383 60.2106 80.2172 62.2032 80.8633 64.2227C81.4891 66.1782 82.0123 68.3151 82.4182 70.5772C82.8188 72.8219 83.0926 74.9473 83.227 76.8952C83.3619 78.7995 83.4283 80.7862 83.4307 82.8018Z" fill="#6092DD"/>
</svg>
