<svg width="100" height="100" viewBox="0 0 100 100" fill="none" xmlns="http://www.w3.org/2000/svg">
<path d="M50.0035 18.7505C48.7633 18.7567 47.5758 19.2521 46.6988 20.129C45.8219 21.0059 45.3265 22.1935 45.3203 23.4337V67.1884H54.6866V23.4337C54.6804 22.1935 54.185 21.0059 53.3081 20.129C52.4312 19.2521 51.2436 18.7567 50.0035 18.7505Z" fill="#AEC8F0"/>
<path d="M58.8218 13.0218C58.5113 13.0239 58.2084 13.1182 57.9516 13.2929C57.6949 13.4676 57.4959 13.7147 57.38 14.0028C57.2642 14.2909 57.2366 14.607 57.3009 14.9108C57.3652 15.2146 57.5184 15.4924 57.7411 15.7089C59.7894 17.7633 60.9385 20.5467 60.9363 23.4477C60.9341 26.3488 59.7807 29.1303 57.7293 31.1817C57.5648 31.3222 57.4313 31.4954 57.3372 31.6901C57.243 31.8849 57.1903 32.0971 57.1822 32.3133C57.1742 32.5295 57.2111 32.745 57.2906 32.9462C57.3701 33.1474 57.4904 33.33 57.644 33.4823C57.7976 33.6347 57.9811 33.7535 58.1829 33.8314C58.3848 33.9093 58.6006 33.9444 58.8167 33.9347C59.0328 33.9249 59.2446 33.8705 59.4386 33.7747C59.6326 33.679 59.8046 33.5441 59.9439 33.3785C61.2501 32.0733 62.2863 30.5234 62.9932 28.8174C63.7002 27.1115 64.0641 25.283 64.0641 23.4364C64.0641 21.5898 63.7002 19.7613 62.9932 18.0554C62.2863 16.3495 61.2501 14.7996 59.9439 13.4943C59.7979 13.3446 59.6234 13.2256 59.4307 13.1445C59.238 13.0633 59.0309 13.0216 58.8218 13.0218ZM41.1345 13.0218C40.7285 13.0339 40.343 13.2033 40.0596 13.4943C38.7534 14.7996 37.7173 16.3495 37.0103 18.0554C36.3033 19.7613 35.9395 21.5898 35.9395 23.4364C35.9395 25.283 36.3033 27.1115 37.0103 28.8174C37.7173 30.5234 38.7534 32.0733 40.0596 33.3785C40.2014 33.5388 40.3745 33.6683 40.5682 33.759C40.762 33.8498 40.9722 33.8998 41.1861 33.9061C41.3999 33.9123 41.6128 33.8747 41.8115 33.7954C42.0102 33.7162 42.1906 33.5971 42.3415 33.4454C42.4924 33.2937 42.6105 33.1127 42.6887 32.9136C42.7669 32.7144 42.8034 32.5014 42.796 32.2875C42.7886 32.0737 42.7374 31.8637 42.6456 31.6705C42.5539 31.4772 42.4235 31.3048 42.2624 31.1639C41.2461 30.1482 40.4398 28.9422 39.8897 27.6147C39.3396 26.2873 39.0564 24.8645 39.0564 23.4276C39.0564 21.9907 39.3396 20.5678 39.8897 19.2404C40.4398 17.9129 41.2461 16.7069 42.2624 15.6912C42.4819 15.4709 42.6307 15.1903 42.69 14.8851C42.7492 14.5799 42.7163 14.2639 42.5953 13.9776C42.4742 13.6912 42.2707 13.4473 42.0105 13.2771C41.7503 13.1069 41.4454 13.018 41.1345 13.0218Z" fill="#6092DD"/>
<path d="M63.0977 8.60443C62.8015 8.63411 62.52 8.74761 62.2861 8.93162C62.0522 9.11562 61.8756 9.36251 61.777 9.64332C61.6785 9.92414 61.662 10.2272 61.7296 10.5171C61.7972 10.8069 61.946 11.0714 62.1587 11.2797C63.7552 12.8761 65.0217 14.7713 65.8857 16.8572C66.7498 18.943 67.1945 21.1787 67.1945 23.4364C67.1945 25.6942 66.7498 27.9298 65.8857 30.0157C65.0217 32.1015 63.7552 33.9968 62.1587 35.5932C61.99 35.7318 61.8523 35.9042 61.7543 36.0993C61.6563 36.2944 61.6002 36.5078 61.5896 36.7259C61.579 36.944 61.6141 37.1618 61.6928 37.3655C61.7714 37.5692 61.8918 37.7541 62.0461 37.9085C62.2005 38.0629 62.3855 38.1832 62.5891 38.2619C62.7928 38.3405 63.0107 38.3756 63.2287 38.365C63.4468 38.3544 63.6602 38.2983 63.8553 38.2003C64.0504 38.1023 64.2228 37.9646 64.3615 37.796C68.1694 33.9873 70.3085 28.8221 70.3085 23.4364C70.3085 18.0507 68.1694 12.8855 64.3615 9.07688C64.1994 8.90886 64.0018 8.77922 63.7831 8.69747C63.5644 8.61572 63.3302 8.58393 63.0977 8.60443ZM36.7172 8.60443C36.3112 8.61647 35.9258 8.78588 35.6424 9.07688C31.8345 12.8855 29.6953 18.0507 29.6953 23.4364C29.6953 28.8221 31.8345 33.9873 35.6424 37.796C35.7811 37.9646 35.9535 38.1023 36.1486 38.2003C36.3437 38.2983 36.5571 38.3544 36.7751 38.365C36.9932 38.3756 37.2111 38.3405 37.4147 38.2619C37.6184 38.1832 37.8034 38.0629 37.9577 37.9085C38.1121 37.7541 38.2325 37.5692 38.3111 37.3655C38.3897 37.1618 38.4249 36.944 38.4143 36.7259C38.4037 36.5078 38.3476 36.2944 38.2496 36.0993C38.1515 35.9042 38.0138 35.7318 37.8452 35.5932C36.2486 33.9968 34.9822 32.1015 34.1181 30.0157C33.2541 27.9298 32.8093 25.6942 32.8093 23.4364C32.8093 21.1787 33.2541 18.943 34.1181 16.8572C34.9822 14.7713 36.2486 12.8761 37.8452 11.2797C38.0667 11.0597 38.2173 10.7786 38.2778 10.4724C38.3383 10.1661 38.3058 9.84882 38.1845 9.5612C38.0632 9.27359 37.8587 9.0288 37.5973 8.85831C37.3358 8.68782 37.0293 8.5994 36.7172 8.60443Z" fill="#6092DD"/>
<path d="M67.662 4.17529C67.351 4.17615 67.0472 4.26966 66.7896 4.44391C66.532 4.61815 66.3321 4.86521 66.2155 5.15356C66.0989 5.44191 66.0708 5.75847 66.1349 6.06282C66.199 6.36718 66.3524 6.64553 66.5754 6.86235C68.7526 9.03851 70.4798 11.6223 71.6581 14.4662C72.8365 17.31 73.443 20.3582 73.443 23.4365C73.443 26.5148 72.8365 29.563 71.6581 32.4068C70.4798 35.2507 68.7526 37.8345 66.5754 40.0106C66.4067 40.1493 66.269 40.3217 66.171 40.5168C66.073 40.7119 66.0169 40.9253 66.0063 41.1434C65.9957 41.3614 66.0308 41.5793 66.1095 41.783C66.1881 41.9866 66.3085 42.1716 66.4628 42.326C66.6172 42.4804 66.8022 42.6007 67.0058 42.6793C67.2095 42.758 67.4274 42.7931 67.6454 42.7825C67.8635 42.7719 68.0769 42.7158 68.272 42.6178C68.4671 42.5198 68.6395 42.3821 68.7782 42.2134C73.7596 37.2318 76.5581 30.4755 76.5581 23.4306C76.5581 16.3857 73.7596 9.62934 68.7782 4.64774C68.6329 4.49873 68.4593 4.3802 68.2677 4.29908C68.076 4.21795 67.8701 4.17587 67.662 4.17529ZM32.2991 4.1871C31.889 4.19608 31.4988 4.36574 31.2125 4.65955C28.7453 7.12618 26.7884 10.0548 25.4537 13.2781C24.1189 16.5014 23.4325 19.9561 23.4336 23.4449C23.4347 26.9336 24.1233 30.3879 25.4601 33.6103C26.7968 36.8328 28.7556 39.7602 31.2243 42.2253C31.366 42.3855 31.5391 42.515 31.7328 42.6057C31.9266 42.6965 32.1369 42.7465 32.3507 42.7528C32.5646 42.759 32.7774 42.7214 32.9762 42.6422C33.1749 42.5629 33.3552 42.4438 33.5061 42.2921C33.657 42.1404 33.7752 41.9594 33.8533 41.7603C33.9315 41.5611 33.968 41.3481 33.9606 41.1343C33.9532 40.9204 33.902 40.7104 33.8103 40.5172C33.7185 40.3239 33.5881 40.1515 33.4271 40.0106C31.2498 37.8345 29.5227 35.2507 28.3443 32.4068C27.1659 29.563 26.5594 26.5148 26.5594 23.4365C26.5594 20.3582 27.1659 17.31 28.3443 14.4662C29.5227 11.6223 31.2498 9.03851 33.4271 6.86235C33.6486 6.64241 33.7992 6.36126 33.8597 6.05503C33.9201 5.7488 33.8876 5.43149 33.7664 5.14388C33.6451 4.85626 33.4406 4.61147 33.1791 4.44098C32.9177 4.27049 32.6112 4.18207 32.2991 4.1871Z" fill="#6092DD"/>
<path d="M9.37891 89.0687V95.3051C9.37891 96.1673 10.0699 96.8701 10.938 96.876H23.4402C24.3024 96.876 24.9993 96.1673 24.9934 95.3051V89.0687H9.37891ZM75.0023 89.0687V95.3051C74.9963 96.1732 75.6991 96.876 76.5672 96.876H89.0695C89.9317 96.876 90.6285 96.1673 90.6285 95.3051V89.0687H75.0023Z" fill="#6092DD"/>
<path d="M7.80816 65.6293C6.56803 65.6355 5.38045 66.1309 4.50353 67.0078C3.62661 67.8847 3.13121 69.0723 3.125 70.3124V85.9387C3.125 88.5136 5.23922 90.6219 7.80816 90.6219H92.1996C93.4387 90.6141 94.6248 90.1181 95.5004 89.2413C96.3761 88.3645 96.8706 87.1779 96.8768 85.9387V70.3124C96.8706 69.0723 96.3752 67.8847 95.4983 67.0078C94.6214 66.1309 93.4338 65.6355 92.1937 65.6293H7.80816Z" fill="#6092DD"/>
<path d="M10.938 71.8715C10.524 71.873 10.1274 72.0386 9.83519 72.3319C9.54297 72.6253 9.3789 73.0224 9.37891 73.4365V82.8146C9.38046 83.2276 9.54522 83.6233 9.83727 83.9153C10.1293 84.2074 10.525 84.3721 10.938 84.3737H48.4387C48.8528 84.3737 49.2499 84.2096 49.5433 83.9174C49.8366 83.6252 50.0022 83.2286 50.0037 82.8146V73.4365C50.0037 73.2304 49.963 73.0265 49.884 72.8362C49.805 72.6459 49.6892 72.4732 49.5433 72.3278C49.3973 72.1824 49.2241 72.0672 49.0335 71.9889C48.843 71.9106 48.6388 71.8707 48.4328 71.8715H10.938ZM85.9454 79.6905H89.0695C91.1541 79.6905 91.1541 76.5605 89.0695 76.5605H85.8627C83.7012 76.6727 83.8607 79.7968 85.9454 79.6905ZM76.5672 79.6905H79.6972C81.776 79.6905 81.776 76.5605 79.6972 76.5605H76.4846C74.3231 76.6727 74.4826 79.7968 76.5672 79.6905ZM67.1891 79.6905H70.3191C72.3979 79.6905 72.3979 76.5605 70.3191 76.5605H67.1123C64.9568 76.6668 65.1044 79.7909 67.1891 79.6905Z" fill="#AEC8F0"/>
</svg>
