<svg width="159" height="42" viewBox="0 0 159 42" fill="none" xmlns="http://www.w3.org/2000/svg">
<g clip-path="url(#clip0_1173_41)">
<rect y="0.623535" width="40.7529" height="40.7529" rx="20.3765" fill="#7F5DBF"/>
<path d="M19.972 24.4015C17.8786 29.3707 18.7326 34.2031 18.7326 34.2031C18.7326 34.2031 14.6195 30.401 16.4508 23.063C17.6435 18.2841 21.7859 16.9322 24.1112 12.5099C24.8661 11.0743 26.4475 0.963235 26.4475 0.963235C26.4475 0.963235 27.4851 11.5689 26.4475 14.5476C25.3014 17.8376 21.7893 20.0878 19.972 24.4015Z" fill="white"/>
<path d="M28.1021 20.8373C29.2278 19.1946 29.4877 18.9416 29.4877 18.9416C29.4877 18.9416 29.4692 20.711 29.2129 21.8116C28.4646 25.0257 25.3853 25.7947 24.5376 28.9884C23.9798 31.0902 24.092 34.4307 24.092 34.4307C24.092 34.4307 22.2856 31.2908 22.9939 28.2176C23.7351 25.002 26.1901 23.6274 28.1021 20.8373Z" fill="white"/>
<path d="M19.9448 10.5046C21.5042 9.18365 21.8279 9.00049 21.8279 9.00049C21.8279 9.00049 21.3021 10.7038 20.7386 11.7057C19.0929 14.6317 15.8965 14.6506 14.1607 17.5336C13.0183 19.4309 12.168 22.681 12.168 22.681C12.168 22.681 11.3236 19.2266 12.8902 16.4271C14.5293 13.498 17.2963 12.748 19.9448 10.5046Z" fill="white"/>
</g>
<path d="M60.131 33.2038C58.2066 33.2038 56.5085 32.8076 55.0369 32.0151C53.5879 31.2227 52.4559 30.136 51.6408 28.7549C50.8484 27.3738 50.4522 25.789 50.4522 24.0004C50.4522 22.2118 50.8371 20.627 51.6069 19.2459C52.3993 17.8648 53.4747 16.7894 54.8331 16.0196C56.2142 15.2272 57.7651 14.831 59.4858 14.831C61.2291 14.831 62.7686 15.2159 64.1044 15.9857C65.4402 16.7554 66.4817 17.8422 67.2288 19.2459C67.9986 20.627 68.3835 22.2458 68.3835 24.1023C68.3835 24.2381 68.3722 24.3966 68.3495 24.5777C68.3495 24.7589 68.3382 24.9287 68.3155 25.0871H52.9992V22.7439H66.6175L65.293 23.5589C65.3157 22.4042 65.078 21.3741 64.5799 20.4685C64.0818 19.5629 63.3912 18.861 62.5083 18.3629C61.6479 17.8422 60.6404 17.5818 59.4858 17.5818C58.3537 17.5818 57.3462 17.8422 56.4632 18.3629C55.5803 18.861 54.8897 19.5742 54.3916 20.5024C53.8935 21.4081 53.6445 22.4495 53.6445 23.6268V24.1702C53.6445 25.3701 53.9162 26.4456 54.4596 27.3965C55.0256 28.3247 55.8067 29.0492 56.8029 29.57C57.799 30.0907 58.9424 30.3511 60.2329 30.3511C61.297 30.3511 62.2592 30.1699 63.1196 29.8077C64.0025 29.4454 64.7723 28.9021 65.4289 28.1776L67.2288 30.2831C66.4137 31.234 65.3949 31.9585 64.1723 32.4566C62.9724 32.9547 61.6253 33.2038 60.131 33.2038ZM73.8955 33V9.22747H76.6802L92.4041 28.7549H90.9438V9.22747H94.3398V33H91.5551L75.8312 13.4726H77.2915V33H73.8955ZM109.198 33.2038C107.387 33.2038 105.78 32.8076 104.376 32.0151C102.972 31.2227 101.863 30.136 101.048 28.7549C100.233 27.3512 99.8253 25.7664 99.8253 24.0004C99.8253 22.2118 100.233 20.627 101.048 19.2459C101.863 17.8648 102.972 16.7894 104.376 16.0196C105.78 15.2272 107.387 14.831 109.198 14.831C110.987 14.831 112.583 15.2272 113.987 16.0196C115.413 16.7894 116.523 17.8648 117.315 19.2459C118.13 20.6043 118.538 22.1892 118.538 24.0004C118.538 25.789 118.13 27.3738 117.315 28.7549C116.523 30.136 115.413 31.2227 113.987 32.0151C112.583 32.8076 110.987 33.2038 109.198 33.2038ZM109.198 30.3511C110.353 30.3511 111.383 30.0907 112.289 29.57C113.217 29.0492 113.942 28.3134 114.462 27.3625C114.983 26.389 115.243 25.2683 115.243 24.0004C115.243 22.7099 114.983 21.6005 114.462 20.6722C113.942 19.7213 113.217 18.9855 112.289 18.4648C111.383 17.9441 110.353 17.6837 109.198 17.6837C108.044 17.6837 107.014 17.9441 106.108 18.4648C105.202 18.9855 104.478 19.7213 103.935 20.6722C103.391 21.6005 103.119 22.7099 103.119 24.0004C103.119 25.2683 103.391 26.389 103.935 27.3625C104.478 28.3134 105.202 29.0492 106.108 29.57C107.014 30.0907 108.044 30.3511 109.198 30.3511ZM128.718 33.2038C127.224 33.2038 125.797 33 124.439 32.5925C123.103 32.1849 122.05 31.6869 121.281 31.0982L122.639 28.5172C123.409 29.0379 124.36 29.4794 125.492 29.8416C126.624 30.2039 127.778 30.385 128.956 30.385C130.473 30.385 131.559 30.1699 132.216 29.7398C132.895 29.3096 133.235 28.7096 133.235 27.9398C133.235 27.3738 133.031 26.9323 132.623 26.6154C132.216 26.2984 131.673 26.0607 130.993 25.9022C130.337 25.7437 129.601 25.6079 128.786 25.4947C127.971 25.3588 127.156 25.2003 126.341 25.0192C125.526 24.8155 124.778 24.5438 124.099 24.2042C123.42 23.8419 122.877 23.3551 122.469 22.7439C122.062 22.1099 121.858 21.2722 121.858 20.2308C121.858 19.144 122.164 18.1931 122.775 17.3781C123.386 16.563 124.246 15.9404 125.356 15.5102C126.488 15.0574 127.824 14.831 129.363 14.831C130.54 14.831 131.729 14.9782 132.929 15.2725C134.152 15.5442 135.148 15.9404 135.918 16.4611L134.525 19.0421C133.71 18.4988 132.861 18.1252 131.978 17.9214C131.095 17.7177 130.212 17.6158 129.329 17.6158C127.903 17.6158 126.839 17.8535 126.137 18.329C125.435 18.7818 125.084 19.3704 125.084 20.0949C125.084 20.7062 125.288 21.1817 125.695 21.5213C126.126 21.8382 126.669 22.0873 127.326 22.2684C128.005 22.4495 128.752 22.608 129.567 22.7439C130.382 22.8571 131.197 23.0155 132.012 23.2193C132.827 23.4004 133.563 23.6608 134.22 24.0004C134.899 24.34 135.442 24.8155 135.85 25.4268C136.28 26.038 136.495 26.8531 136.495 27.8719C136.495 28.9587 136.178 29.8983 135.544 30.6907C134.91 31.4831 134.016 32.1057 132.861 32.5585C131.706 32.9887 130.325 33.2038 128.718 33.2038ZM149.094 33.2038C147.169 33.2038 145.471 32.8076 143.999 32.0151C142.55 31.2227 141.418 30.136 140.603 28.7549C139.811 27.3738 139.415 25.789 139.415 24.0004C139.415 22.2118 139.8 20.627 140.569 19.2459C141.362 17.8648 142.437 16.7894 143.796 16.0196C145.177 15.2272 146.728 14.831 148.448 14.831C150.192 14.831 151.731 15.2159 153.067 15.9857C154.403 16.7554 155.444 17.8422 156.191 19.2459C156.961 20.627 157.346 22.2458 157.346 24.1023C157.346 24.2381 157.335 24.3966 157.312 24.5777C157.312 24.7589 157.301 24.9287 157.278 25.0871H141.962V22.7439H155.58L154.256 23.5589C154.278 22.4042 154.041 21.3741 153.542 20.4685C153.044 19.5629 152.354 18.861 151.471 18.3629C150.611 17.8422 149.603 17.5818 148.448 17.5818C147.316 17.5818 146.309 17.8422 145.426 18.3629C144.543 18.861 143.852 19.5742 143.354 20.5024C142.856 21.4081 142.607 22.4495 142.607 23.6268V24.1702C142.607 25.3701 142.879 26.4456 143.422 27.3965C143.988 28.3247 144.769 29.0492 145.765 29.57C146.762 30.0907 147.905 30.3511 149.195 30.3511C150.26 30.3511 151.222 30.1699 152.082 29.8077C152.965 29.4454 153.735 28.9021 154.391 28.1776L156.191 30.2831C155.376 31.234 154.358 31.9585 153.135 32.4566C151.935 32.9547 150.588 33.2038 149.094 33.2038Z" fill="#3F1A63"/>
<defs>
<clipPath id="clip0_1173_41">
<rect y="0.623535" width="40.7529" height="40.7529" rx="20.3765" fill="white"/>
</clipPath>
</defs>
</svg>
